# xmcd CD database file
#
# Track frame offsets:
#	150
#	19455
#	34564
#	49673
#	66017
#	79957
#	95186
#	111623
#	127308
#	142639
#	158641
#	176841
#	191409
#	212639
#	228990
#	247692
#	263351
#	279047
#	297981
#	316632
#	334392
#
# Disc length: 4651 seconds
#
# Revision: 3
# Processed by: cddbd v1.5.2PL0 Copyright (c) Steve Scherf et al.
# Submitted via: CDex 1.51
#
DISCID=28122915
DTITLE=Various Artist - ZM-PP-13-CD-1
DYEAR=1900
DGENRE=Blues
TTITLE0=Train - 50 Ways To say Goodbye
TTITLE1=Alyssa Reid Ft Jump Smokers - Alone Again (duet)
TTITLE2=Alyssa Reid Ft Jump Smokers - Alone Again (for solo female
TTITLE3=Stooshe - Black Heart
TTITLE4=Justin Bieber - Boyfriend
TTITLE5=Carly Rae Jepsen - Call Me Maybe
TTITLE6=Cheryl Cole - Call My Name
TTITLE7=Wanted The - Chasing The Sun
TTITLE8=Train - Drive By
TTITLE9=Ed Sheeran - Drunk
TTITLE10=Alexandra Burke - Elephant
TTITLE11=Loreen - Euphoria
TTITLE12=Rudimental Ft John Newman - Feel The Love
TTITLE13=Pixie Lott - Kiss The Stars
TTITLE14=Will Young - Losing Myself
TTITLE15=Emeli Sande - Next To Me
TTITLE16=One Direction - One Thing
TTITLE17=Maroon 5 Ft Wiz Khalifa - Payphone
TTITLE18=JLS - Proud
TTITLE19=Dappy Ft Brian May - Rockstar
TTITLE20=Marcus Collins - Seven Nation Army
EXTD=
EXTT0=
EXTT1=
EXTT2=
EXTT3=
EXTT4=
EXTT5=
EXTT6=
EXTT7=
EXTT8=
EXTT9=
EXTT10=
EXTT11=
EXTT12=
EXTT13=
EXTT14=
EXTT15=
EXTT16=
EXTT17=
EXTT18=
EXTT19=
EXTT20=
PLAYORDER=
